name C:\Users\u0101727\Documents\MyRepositories\upper-imu-dc\Results\main_tracking\Case_10\FLX01_angularVelocities_groundFrame.mot
datacolumns 4
datarows 70
range 3.51000000 4.20000000
endheader 
time	radius_imu_x	radius_imu_y	radius_imu_z	
          3.51000000	         -0.02960085	         -0.24749111	         -0.15463302	
          3.52000000	         -0.01093236	         -0.18523887	         -0.14294409	
          3.53000000	          0.00727701	         -0.12211264	         -0.12949943	
          3.54000000	          0.02445600	         -0.06104071	         -0.11513073	
          3.55000000	          0.04005223	         -0.00522329	         -0.10081118	
          3.56000000	          0.05367468	          0.04297195	         -0.08739868	
          3.57000000	          0.06520899	          0.08287956	         -0.07539933	
          3.58000000	          0.07481386	          0.11561152	         -0.06487005	
          3.59000000	          0.08281691	          0.14343945	         -0.05547746	
          3.60000000	          0.08959649	          0.16896771	         -0.04665756	
          3.61000000	          0.09549778	          0.19440031	         -0.03782012	
          3.62000000	          0.10074605	          0.22079614	         -0.02857658	
          3.63000000	          0.10532021	          0.24724929	         -0.01895566	
          3.64000000	          0.10884314	          0.27037689	         -0.00952465	
          3.65000000	          0.11058485	          0.28458285	         -0.00134959	
          3.66000000	          0.10960038	          0.28311422	          0.00419143	
          3.67000000	          0.10496071	          0.25959148	          0.00567617	
          3.68000000	          0.09604468	          0.20978211	          0.00194119	
          3.69000000	          0.08288020	          0.13352784	         -0.00759570	
          3.70000000	          0.06646076	          0.03642467	         -0.02264804	
          3.71000000	          0.04882076	         -0.06994464	         -0.04199069	
          3.72000000	          0.03265717	         -0.17029643	         -0.06375307	
          3.73000000	          0.02059679	         -0.24984763	         -0.08599408	
          3.74000000	          0.01446122	         -0.29851602	         -0.10730483	
          3.75000000	          0.01479773	         -0.31347888	         -0.12717666	
          3.76000000	          0.02077903	         -0.29951221	         -0.14605640	
          3.77000000	          0.03045617	         -0.26731492	         -0.16513726	
          3.78000000	          0.04126124	         -0.23045880	         -0.18596197	
          3.79000000	          0.05062805	         -0.20180665	         -0.20994465	
          3.80000000	          0.05659064	         -0.19027197	         -0.23792661	
          3.81000000	          0.05821594	         -0.19875398	         -0.26988881	
          3.82000000	          0.05575823	         -0.22379528	         -0.30491104	
          3.83000000	          0.05050047	         -0.25696121	         -0.34138407	
          3.84000000	          0.04434433	         -0.28738817	         -0.37739359	
          3.85000000	          0.03928100	         -0.30467028	         -0.41115365	
          3.86000000	          0.03689049	         -0.30130990	         -0.44137889	
          3.87000000	          0.03799282	         -0.27418743	         -0.46751507	
          3.88000000	          0.04251865	         -0.22483536	         -0.48978805	
          3.89000000	          0.04959846	         -0.15865885	         -0.50908415	
          3.90000000	          0.05781716	         -0.08348006	         -0.52671791	
          3.91000000	          0.06555476	         -0.00783273	         -0.54415398	
          3.92000000	          0.07133048	          0.06065196	         -0.56273285	
          3.93000000	          0.07408424	          0.11653909	         -0.58343371	
          3.94000000	          0.07335874	          0.15741428	         -0.60670853	
          3.95000000	          0.06936795	          0.18411690	         -0.63243062	
          3.96000000	          0.06294315	          0.20029222	         -0.65999177	
          3.97000000	          0.05536013	          0.21131759	         -0.68853693	
          3.98000000	          0.04808607	          0.22289317	         -0.71726536	
          3.99000000	          0.04251520	          0.23972527	         -0.74569855	
          4.00000000	          0.03975764	          0.26465527	         -0.77383289	
          4.01000000	          0.04051333	          0.29837062	         -0.80214286	
          4.02000000	          0.04502628	          0.33961408	         -0.83145129	
          4.03000000	          0.05309367	          0.38567709	         -0.86272405	
          4.04000000	          0.06411119	          0.43297203	         -0.89685724	
          4.05000000	          0.07716775	          0.47762611	         -0.93449239	
          4.06000000	          0.09123009	          0.51618965	         -0.97584783	
          4.07000000	          0.10544025	          0.54651791	         -1.02054954	
          4.08000000	          0.11949079	          0.56867979	         -1.06749004	
          4.09000000	          0.13398007	          0.58555835	         -1.11478763	
          4.10000000	          0.15062116	          0.60281582	         -1.15991226	
          4.11000000	          0.17221056	          0.62812111	         -1.19998595	
          4.12000000	          0.20233039	          0.66980906	         -1.23219394	
          4.13000000	          0.24479882	          0.73524330	         -1.25421391	
          4.14000000	          0.30288976	          0.82909488	         -1.26459400	
          4.15000000	          0.37837544	          0.95172216	         -1.26304555	
          4.16000000	          0.47052941	          1.09791583	         -1.25062672	
          4.17000000	          0.57531978	          1.25635873	         -1.22978159	
          4.18000000	          0.68506503	          1.41013326	         -1.20419412	
          4.19000000	          0.78878003	          1.53843419	         -1.17843700	
          4.20000000	          0.87330020	          1.61935062	         -1.15743525	
